<?xml version="1.0" encoding="UTF-8" standalone="no"?>
<!-- Created with Inkscape (http://www.inkscape.org/) -->

<svg
   width="24"
   height="24"
   viewBox="0 0 6.3500001 6.3500001"
   version="1.1"
   id="svg1"
   xml:space="preserve"
   sodipodi:docname="dessin.svg"
   inkscape:version="1.3.2 (091e20e, 2023-11-25, custom)"
   inkscape:export-filename="BoxBox\ic_check_reopen_white_24dp.svg"
   inkscape:export-xdpi="49.200001"
   inkscape:export-ydpi="49.200001"
   xmlns:inkscape="http://www.inkscape.org/namespaces/inkscape"
   xmlns:sodipodi="http://sodipodi.sourceforge.net/DTD/sodipodi-0.dtd"
   xmlns="http://www.w3.org/2000/svg"
   xmlns:svg="http://www.w3.org/2000/svg"><sodipodi:namedview
     id="namedview1"
     pagecolor="#505050"
     bordercolor="#ffffff"
     borderopacity="1"
     inkscape:showpageshadow="0"
     inkscape:pageopacity="0"
     inkscape:pagecheckerboard="1"
     inkscape:deskcolor="#505050"
     inkscape:document-units="px"
     inkscape:zoom="10.718743"
     inkscape:cx="-12.688055"
     inkscape:cy="17.912548"
     inkscape:window-width="2400"
     inkscape:window-height="1262"
     inkscape:window-x="-8"
     inkscape:window-y="-8"
     inkscape:window-maximized="1"
     inkscape:current-layer="layer1" /><defs
     id="defs1" /><g
     inkscape:label="Calque 1"
     inkscape:groupmode="layer"
     id="layer1"><path
       style="fill:#80cc28;fill-opacity:1;stroke-width:0.106504"
       d="m 1.0798798,5.9666675 c -0.01098,-0.00244 -0.029646,-0.00976 -0.039651,-0.016836 C 1.0208309,5.9372651 0.91166357,5.8273291 0.84628273,5.7540304 L 0.80736412,5.7104759 0.92021591,5.6103123 1.0330677,5.5101488 l 0.032453,0.048068 c 0.017813,0.026353 0.060879,0.08467 0.095771,0.1294928 0.069541,0.089549 0.082107,0.1129739 0.082107,0.1533687 0,0.042579 -0.032818,0.094796 -0.072713,0.1155358 -0.022814,0.01098 -0.065149,0.016715 -0.090769,0.00976 z M 0.60080265,5.4436697 C 0.51235126,5.3165803 0.35699406,5.0528731 0.35699406,5.0298636 c 0,-0.00366 0.0850353,-0.027329 0.19018875,-0.052461 0.10455565,-0.024766 0.19349506,-0.04636 0.19752112,-0.047825 0.00366,-0.001 0.0163483,0.023302 0.0281824,0.057219 0.0254984,0.072836 0.0724692,0.1837106 0.1073617,0.2530442 0.0141523,0.028182 0.0259864,0.053925 0.0259864,0.056731 0,0.00366 -0.16737444,0.1570164 -0.23080325,0.2103922 L 0.65627688,5.522947 Z M 0.22271874,4.7209669 C 0.17904206,4.6023811 0.14817557,4.5013756 0.1187731,4.3819724 0.09547076,4.2871768 0.05801615,4.0999771 0.06143222,4.096378 c 0.0024403,-0.00244 0.55331528,0.081497 0.55674354,0.085035 0.00244,0.00244 0.0061,0.049045 0.00976,0.1049216 0.00732,0.1138278 0.0200083,0.2125151 0.0405046,0.3205723 0.00732,0.040138 0.0140303,0.076861 0.0145182,0.081864 6.3441e-4,0.00732 -0.0544129,0.022327 -0.19759426,0.056731 -0.10919172,0.026231 -0.20635406,0.049654 -0.21600441,0.052095 -0.0172023,0.00366 -0.0180563,0.00244 -0.0473368,-0.076617 z M 3.1320986,4.1973468 C 2.8822387,4.1489121 2.6929161,3.960968 2.6422609,3.7109617 c -0.01647,-0.080887 -0.01098,-0.2078913 0.012932,-0.2868509 0.069419,-0.2329261 0.2617918,-0.400203 0.5003299,-0.4350833 0.067711,-0.00976 0.1710224,-0.00488 0.2355736,0.012566 l 0.047215,0.012567 0.1247592,-0.057341 C 3.7115469,2.888742 5.1491809,2.2266009 5.8278777,1.9137025 5.9897742,1.8391593 6.1351396,1.7724243 6.1509144,1.7656165 6.256568,1.7199878 6.3581224,1.8146614 6.3114811,1.915313 6.2950109,1.9509375 6.2874467,1.9571596 6.0858751,2.1016709 5.9894936,2.1708459 5.6292464,2.4297828 5.2854205,2.6771906 4.9415946,2.9246104 4.4772309,3.2587249 4.2535038,3.4196821 L 3.8467494,3.7123525 3.826253,3.7771357 c -0.041969,0.1326404 -0.1264184,0.2479688 -0.2377085,0.324525 -0.045995,0.03172 -0.1336043,0.071249 -0.1917749,0.086499 -0.067589,0.017812 -0.1984727,0.022814 -0.2646099,0.00976 z M 3.3309863,3.7748664 c 0.1211478,-0.061489 0.1499159,-0.2217508 0.057219,-0.3179371 -0.013542,-0.01403 -0.039407,-0.033184 -0.057585,-0.042944 -0.027694,-0.01464 -0.041603,-0.017446 -0.086011,-0.017568 -0.044652,-1.098e-4 -0.058804,0.00244 -0.090525,0.018301 -0.065149,0.032086 -0.1045556,0.090525 -0.1096797,0.1634704 -0.00366,0.051363 0.00488,0.085523 0.030745,0.1265648 0.053193,0.083815 0.1673012,0.1150479 0.2559722,0.070151 z M 0.37353752,3.8989911 C 0.24619191,3.8795926 0.11778488,3.8601941 0.08819942,3.8560467 l -0.05380289,-0.00732 -0.0036605,-0.031598 c -0.00732,-0.059293 -0.0036605,-0.385941 0.0060999,-0.4964625 0.01451822,-0.1644586 0.05160678,-0.3968967 0.06331901,-0.3968967 0.0061,0 0.64104687,0.3743141 0.64951381,0.3825493 0.00244,0.00244 -0.00244,0.028304 -0.0109801,0.057463 -0.0416027,0.1335555 -0.0808873,0.3192058 -0.0951616,0.4497357 -0.0130542,0.1202939 -0.0135422,0.1225021 -0.0257424,0.1217579 -0.0061,-3.049e-4 -0.11529182,-0.016593 -0.24269838,-0.035869 z M 0.73064931,3.0150261 C 0.66879433,2.9784256 0.51708493,2.8888151 0.39338723,2.8158946 0.26964068,2.7429375 0.16590245,2.6810092 0.16276699,2.6782276 c -0.00244,-0.00244 0.0109801,-0.054657 0.0318425,-0.1151699 0.0803993,-0.2360493 0.19109161,-0.4684995 0.32306104,-0.6782696 0.060147,-0.095528 0.17262053,-0.2515192 0.17979424,-0.2492134 0.00854,0.00244 0.56514953,0.7800072 0.56553993,0.7903651 2.196e-4,0.00488 -0.016836,0.028549 -0.037699,0.052949 C 1.0913723,2.6346606 0.95774367,2.8391724 0.87344033,3.0173929 l -0.0303785,0.064173 z M 4.6039909,2.2214523 C 4.3380877,1.9911493 4.0229201,1.8183702 3.6993588,1.7255145 c -0.040993,-0.010981 -0.074177,-0.02318 -0.074055,-0.025376 2.073e-4,-0.00244 0.093453,-0.277835 0.2072324,-0.6125839 0.2009982,-0.59125795 0.2073423,-0.60853342 0.222922,-0.606862 0.026474,0.00244 0.1937268,0.0539249 0.2866679,0.0875974 0.4576173,0.16558091 0.8643474,0.42725065 1.2050866,0.7753221 0.143279,0.1463658 0.3343462,0.377962 0.3217068,0.3899305 -0.0061,0.0061 -1.1845534,0.5480814 -1.1907876,0.5480326 -0.00244,-2.44e-5 -0.035869,-0.027084 -0.074055,-0.060147 z M 1.1491769,1.8491757 C 0.99000101,1.6262416 0.85976395,1.4409816 0.85976395,1.4374802 c 0,-0.00976 0.22014025,-0.2250936 0.29768475,-0.2910112 0.1460241,-0.1241248 0.3317598,-0.25432528 0.4992684,-0.34992599 0.082473,-0.0469707 0.272772,-0.14192484 0.285143,-0.14210784 0.00366,-6.1e-5 0.030257,0.11333978 0.061611,0.2661594 0.02989,0.14643893 0.082229,0.40170353 0.1163898,0.56724793 0.034161,0.1655567 0.059902,0.3028577 0.057585,0.3051269 -0.00244,0.00244 -0.043067,0.020984 -0.090404,0.041603 -0.2008518,0.087353 -0.4152825,0.2224583 -0.5878297,0.370471 -0.032208,0.027694 -0.059049,0.050143 -0.059537,0.050021 C 1.4391389,2.2548443 1.3084992,2.072305 1.1493233,1.8493709 Z M 2.4109697,1.7045058 C 2.4085296,1.6996257 2.3616809,1.4714821 2.305194,1.1967703 2.2485851,0.922083 2.1964902,0.66984401 2.1891701,0.63625688 c -0.00732,-0.0335506 -0.013054,-0.0651491 -0.013054,-0.0701512 0,-0.0061 0.037942,-0.0206184 0.1107777,-0.0425787 0.2278506,-0.0691751 0.4094139,-0.10601965 0.6466466,-0.13115205 0.1314449,-0.0139082 0.4626802,-0.0159823 0.5887691,-0.00366 0.084182,0.00732 0.276005,0.0334285 0.2792747,0.0367226 9.623e-4,9.5162e-4 -0.035624,0.11163176 -0.081131,0.24596809 C 3.6749461,0.80577856 3.5822248,1.0794411 3.5145137,1.2795487 3.4468026,1.4796684 3.3892665,1.645896 3.3864971,1.6489583 c -0.00244,0.00244 -0.055145,8.54e-4 -0.1166338,-0.00488 -0.2536543,-0.02379 -0.5141528,-0.00732 -0.7583275,0.049045 -0.099676,0.022814 -0.096747,0.02257 -0.1006516,0.010981 z"
       id="path9" /></g></svg>
